<svg version="1.1" id="Layer_1" xmlns="http://www.w3.org/2000/svg" xmlns:xlink="http://www.w3.org/1999/xlink" x="0px" y="0px"
	 width="100%" viewBox="0 0 960 640" enable-background="new 0 0 960 640" xml:space="preserve">
<path fill="#000000" opacity="1.000000" stroke="none" 
	d="
M961.000000,460.000000 
	C961.000000,520.316833 961.000000,580.633667 961.000000,640.975220 
	C641.104065,640.975220 321.208160,640.975220 1.000000,640.975220 
	C1.000000,503.975250 1.000000,366.950256 1.406473,229.464478 
	C4.256791,229.669083 6.691708,230.868301 9.145999,230.909363 
	C21.104425,231.109390 33.068073,231.018204 45.029785,230.990982 
	C50.004559,230.979660 53.864246,227.643524 53.935349,222.694244 
	C54.114326,210.236649 54.162281,197.771103 53.890186,185.316864 
	C53.810493,181.669083 52.266457,177.986557 47.613007,178.050293 
	C32.073917,178.263184 16.537464,178.668442 1.000000,179.000000 
	C1.000000,119.684738 1.000000,60.369484 1.000000,1.027113 
	C320.884430,1.027113 640.768860,1.027113 961.000000,1.027113 
	C961.000000,87.691261 961.000000,174.382980 960.617065,261.542816 
	C950.827759,260.313782 941.482910,258.025299 932.002625,257.039154 
	C910.417053,254.793915 888.881531,254.843307 867.953308,261.857788 
	C851.725647,267.296753 839.173401,277.160370 830.811768,292.341461 
	C820.211121,311.587616 817.552856,332.719299 817.309021,353.969360 
	C817.121582,370.298584 818.177734,386.960999 821.345337,402.947266 
	C829.369385,443.442566 853.707458,462.220978 890.749878,464.581024 
	C914.105408,466.069031 937.997375,467.619141 961.000000,460.000000 
M630.495667,273.996674 
	C622.696594,279.764099 617.425049,287.580383 613.032715,296.009705 
	C602.603760,316.023621 600.695190,337.969696 600.298462,359.849976 
	C600.054016,373.333679 601.785278,387.048859 604.309509,400.341095 
	C608.067627,420.130676 617.066956,437.415222 634.009521,449.450714 
	C647.637878,459.131927 663.266296,464.256927 679.669128,464.705353 
	C705.037476,465.398895 730.565918,466.726196 755.675781,460.896057 
	C761.971252,459.434296 764.871094,456.975647 764.946594,451.632324 
	C765.076050,442.468781 765.100952,433.299805 764.932556,424.137451 
	C764.831482,418.638306 761.854126,416.317505 756.483826,417.136993 
	C752.225769,417.786774 747.974731,418.492981 743.737732,419.267883 
	C723.708557,422.930939 703.587158,424.604980 683.411316,420.879944 
	C673.929565,419.129333 664.825684,415.468781 659.757385,406.775818 
	C656.412598,401.038910 654.747314,394.236938 652.864441,387.756531 
	C650.792297,380.624695 651.463684,380.005188 658.807068,380.003632 
	C694.302551,379.996185 729.797974,380.018402 765.293396,379.961975 
	C767.919983,379.957794 770.553711,379.474335 773.169922,379.111267 
	C777.356201,378.530396 779.144409,376.001221 779.004150,371.854279 
	C778.633484,360.893585 778.867920,349.879791 777.851379,338.981323 
	C776.319702,322.559723 772.814026,306.567322 764.947449,291.759796 
	C753.867737,270.904144 735.786255,260.027008 713.212097,257.337982 
	C699.316711,255.682770 684.973267,256.028107 670.996826,257.298889 
	C656.354065,258.630249 642.510864,263.601685 630.495667,273.996674 
M376.698975,256.003967 
	C372.402466,256.366302 368.088898,256.591156 363.813293,257.121887 
	C356.653473,258.010620 354.029877,261.100220 354.007507,268.390656 
	C353.981964,276.723511 353.960999,285.056763 354.017578,293.389343 
	C354.062073,299.942810 355.159790,301.124298 361.531830,300.961243 
	C367.999908,300.795807 374.459747,300.089264 380.924591,300.069153 
	C389.427948,300.042755 394.311890,303.834839 396.412659,312.034729 
	C397.350342,315.694702 397.912231,319.555695 397.931946,323.329193 
	C398.062653,348.327332 397.999664,373.326477 398.000061,398.325317 
	C398.000366,417.491089 397.982025,436.656891 398.011414,455.822632 
	C398.023102,463.424835 399.582703,464.985199 406.986694,464.995453 
	C418.152802,465.010895 429.327484,464.732269 440.482330,465.087189 
	C448.939331,465.356262 450.064484,463.035706 450.047485,455.197876 
	C449.949707,410.033539 450.153870,364.867859 449.861694,319.705200 
	C449.807465,311.320801 448.603699,302.806061 446.803772,294.598541 
	C442.672577,275.760651 432.176025,261.978333 412.331940,258.467590 
	C400.984222,256.460022 389.230530,256.747162 376.698975,256.003967 
M563.000000,388.500000 
	C563.000000,369.008820 563.351501,349.508911 562.866089,330.029816 
	C562.582092,318.633911 561.918640,307.085236 559.747986,295.931824 
	C554.990906,271.488556 541.994263,260.352112 520.657471,257.423218 
	C506.503540,255.480331 491.863617,256.854248 477.448883,257.135254 
	C470.857544,257.263794 467.159485,260.300964 467.082275,264.951080 
	C466.910889,275.276703 467.022888,285.607147 467.031281,295.935608 
	C467.033905,299.158020 468.616669,300.940094 471.892822,300.949982 
	C474.050659,300.956512 476.208801,300.784363 478.367279,300.705872 
	C484.001648,300.501007 489.659180,299.894135 495.265106,300.206970 
	C502.273804,300.598022 507.174652,304.552887 508.855286,311.410858 
	C510.067383,316.356873 510.890717,321.535980 510.909760,326.614777 
	C511.068420,368.928314 510.998962,411.242645 511.003418,453.556763 
	C511.003601,455.388672 510.926239,457.233185 511.106445,459.049866 
	C511.501343,463.030487 513.161133,465.215637 517.803162,465.095093 
	C529.290161,464.796722 540.790161,465.001160 552.284973,464.999298 
	C561.832642,464.997711 562.987244,463.830750 562.994568,453.970703 
	C563.010376,432.480469 562.999756,410.990234 563.000000,388.500000 
M178.348785,459.182373 
	C181.377228,460.474762 184.294662,462.241852 187.452637,462.980255 
	C204.206543,466.897705 221.247986,465.090088 238.125870,464.508331 
	C247.491425,464.185547 248.988983,461.149567 248.997299,451.411835 
	C249.003860,443.750580 249.089188,436.087524 248.949478,428.428711 
	C248.849243,422.934265 246.744049,420.901184 241.274643,421.043243 
	C234.977432,421.206787 228.689041,421.905975 222.394684,421.936920 
	C213.240067,421.981903 208.570465,418.815247 206.329376,410.166077 
	C204.850174,404.457275 204.123184,398.399170 204.097595,392.492950 
	C203.915100,350.356720 204.004410,308.219360 203.995560,266.082336 
	C203.993774,257.595123 202.375961,256.013580 193.758896,256.003418 
	C183.266296,255.991013 172.773651,255.991165 162.281052,256.003418 
	C154.163712,256.012909 153.005280,257.154327 153.003983,265.218140 
	C152.996567,311.019257 152.905655,356.820740 153.093521,402.621063 
	C153.124649,410.205505 153.776398,417.903870 155.217468,425.341064 
	C157.964172,439.516571 164.178955,451.727997 178.348785,459.182373 
M337.999725,316.622192 
	C337.313232,310.367920 336.971649,304.052643 335.877838,297.870453 
	C332.062225,276.304962 320.274902,261.837158 298.099060,257.625092 
	C282.464233,254.655380 266.652191,255.286743 250.995667,257.629517 
	C243.216034,258.793640 242.014633,260.998810 242.002579,269.308075 
	C241.992188,276.471893 241.989944,283.635742 242.003128,290.799530 
	C242.020248,300.110077 244.687286,302.122131 253.957352,300.892426 
	C259.523315,300.154053 265.219757,299.964752 270.835999,300.157288 
	C276.944366,300.366730 282.170563,303.136200 283.558350,309.427307 
	C285.259369,317.138306 286.789825,325.076263 286.850708,332.928070 
	C287.169617,374.075928 286.997131,415.227570 287.002686,456.377899 
	C287.003815,464.646973 287.335541,464.987762 295.334229,464.996521 
	C306.496460,465.008728 317.658691,465.003571 328.820923,464.998627 
	C337.584198,464.994751 337.995605,464.583160 337.996826,455.540344 
	C338.003021,409.558594 337.999878,363.576874 337.999725,316.622192 
z"/>
<path fill="#3C3C3B" opacity="1.000000" stroke="none" 
	d="
M961.000000,459.531342 
	C937.997375,467.619141 914.105408,466.069031 890.749878,464.581024 
	C853.707458,462.220978 829.369385,443.442566 821.345337,402.947266 
	C818.177734,386.960999 817.121582,370.298584 817.309021,353.969360 
	C817.552856,332.719299 820.211121,311.587616 830.811768,292.341461 
	C839.173401,277.160370 851.725647,267.296753 867.953308,261.857788 
	C888.881531,254.843307 910.417053,254.793915 932.002625,257.039154 
	C941.482910,258.025299 950.827759,260.313782 960.617065,262.005463 
	C961.000000,274.687561 961.000000,287.375122 960.589172,300.590240 
	C957.058838,301.381287 953.904968,302.078308 950.825745,301.834045 
	C936.673584,300.711182 922.683777,298.127380 908.299866,299.876221 
	C887.680237,302.383301 874.246155,308.808685 871.067261,331.907501 
	C869.177795,345.636932 869.148254,359.687134 869.182617,373.590912 
	C869.201599,381.284790 870.398254,389.145599 872.290955,396.620514 
	C874.491577,405.311646 879.273865,412.740967 887.841858,416.814087 
	C903.751770,424.377441 920.697388,421.810974 937.374451,421.665833 
	C945.250977,421.597321 953.124878,421.231262 961.000000,421.000000 
	C961.000000,433.687561 961.000000,446.375122 961.000000,459.531342 
z"/>
<path fill="#000000" opacity="1.000000" stroke="none" 
	d="
M961.000000,420.531372 
	C953.124878,421.231262 945.250977,421.597321 937.374451,421.665833 
	C920.697388,421.810974 903.751770,424.377441 887.841858,416.814087 
	C879.273865,412.740967 874.491577,405.311646 872.290955,396.620514 
	C870.398254,389.145599 869.201599,381.284790 869.182617,373.590912 
	C869.148254,359.687134 869.177795,345.636932 871.067261,331.907501 
	C874.246155,308.808685 887.680237,302.383301 908.299866,299.876221 
	C922.683777,298.127380 936.673584,300.711182 950.825745,301.834045 
	C953.904968,302.078308 957.058838,301.381287 960.589172,301.058899 
	C961.000000,340.687561 961.000000,380.375122 961.000000,420.531372 
z"/>
<path fill="#3F98BD" opacity="1.000000" stroke="none" 
	d="
M1.000000,179.468658 
	C16.537464,178.668442 32.073917,178.263184 47.613007,178.050293 
	C52.266457,177.986557 53.810493,181.669083 53.890186,185.316864 
	C54.162281,197.771103 54.114326,210.236649 53.935349,222.694244 
	C53.864246,227.643524 50.004559,230.979660 45.029785,230.990982 
	C33.068073,231.018204 21.104425,231.109390 9.145999,230.909363 
	C6.691708,230.868301 4.256791,229.669083 1.406473,229.001846 
	C1.000000,212.645767 1.000000,196.291550 1.000000,179.468658 
z"/>
<path fill="#3C3C3B" opacity="1.000000" stroke="none" 
	d="
M630.749390,273.746674 
	C642.510864,263.601685 656.354065,258.630249 670.996826,257.298889 
	C684.973267,256.028107 699.316711,255.682770 713.212097,257.337982 
	C735.786255,260.027008 753.867737,270.904144 764.947449,291.759796 
	C772.814026,306.567322 776.319702,322.559723 777.851379,338.981323 
	C778.867920,349.879791 778.633484,360.893585 779.004150,371.854279 
	C779.144409,376.001221 777.356201,378.530396 773.169922,379.111267 
	C770.553711,379.474335 767.919983,379.957794 765.293396,379.961975 
	C729.797974,380.018402 694.302551,379.996185 658.807068,380.003632 
	C651.463684,380.005188 650.792297,380.624695 652.864441,387.756531 
	C654.747314,394.236938 656.412598,401.038910 659.757385,406.775818 
	C664.825684,415.468781 673.929565,419.129333 683.411316,420.879944 
	C703.587158,424.604980 723.708557,422.930939 743.737732,419.267883 
	C747.974731,418.492981 752.225769,417.786774 756.483826,417.136993 
	C761.854126,416.317505 764.831482,418.638306 764.932556,424.137451 
	C765.100952,433.299805 765.076050,442.468781 764.946594,451.632324 
	C764.871094,456.975647 761.971252,459.434296 755.675781,460.896057 
	C730.565918,466.726196 705.037476,465.398895 679.669128,464.705353 
	C663.266296,464.256927 647.637878,459.131927 634.009521,449.450714 
	C617.066956,437.415222 608.067627,420.130676 604.309509,400.341095 
	C601.785278,387.048859 600.054016,373.333679 600.298462,359.849976 
	C600.695190,337.969696 602.603760,316.023621 613.032715,296.009705 
	C617.425049,287.580383 622.696594,279.764099 630.749390,273.746674 
M728.070251,324.494354 
	C725.534668,314.805420 721.099670,306.260345 711.367920,302.291504 
	C698.393860,297.000458 684.992676,297.096405 672.149231,302.564850 
	C659.658264,307.883209 650.091309,326.850159 652.180847,340.805634 
	C652.359497,341.998932 654.262817,343.635376 655.546204,343.822388 
	C658.643066,344.273773 661.847412,343.998108 665.008423,343.998383 
	C685.306274,344.000031 705.604187,343.984161 725.902039,344.010193 
	C728.767273,344.013885 731.548218,343.992767 730.882751,339.920807 
	C730.084045,335.033417 729.121033,330.172852 728.070251,324.494354 
z"/>
<path fill="#3C3C3B" opacity="1.000000" stroke="none" 
	d="
M377.179321,256.002563 
	C389.230530,256.747162 400.984222,256.460022 412.331940,258.467590 
	C432.176025,261.978333 442.672577,275.760651 446.803772,294.598541 
	C448.603699,302.806061 449.807465,311.320801 449.861694,319.705200 
	C450.153870,364.867859 449.949707,410.033539 450.047485,455.197876 
	C450.064484,463.035706 448.939331,465.356262 440.482330,465.087189 
	C429.327484,464.732269 418.152802,465.010895 406.986694,464.995453 
	C399.582703,464.985199 398.023102,463.424835 398.011414,455.822632 
	C397.982025,436.656891 398.000366,417.491089 398.000061,398.325317 
	C397.999664,373.326477 398.062653,348.327332 397.931946,323.329193 
	C397.912231,319.555695 397.350342,315.694702 396.412659,312.034729 
	C394.311890,303.834839 389.427948,300.042755 380.924591,300.069153 
	C374.459747,300.089264 367.999908,300.795807 361.531830,300.961243 
	C355.159790,301.124298 354.062073,299.942810 354.017578,293.389343 
	C353.960999,285.056763 353.981964,276.723511 354.007507,268.390656 
	C354.029877,261.100220 356.653473,258.010620 363.813293,257.121887 
	C368.088898,256.591156 372.402466,256.366302 377.179321,256.002563 
z"/>
<path fill="#3C3C3B" opacity="1.000000" stroke="none" 
	d="
M563.000000,389.000000 
	C562.999756,410.990234 563.010376,432.480469 562.994568,453.970703 
	C562.987244,463.830750 561.832642,464.997711 552.284973,464.999298 
	C540.790161,465.001160 529.290161,464.796722 517.803162,465.095093 
	C513.161133,465.215637 511.501343,463.030487 511.106445,459.049866 
	C510.926239,457.233185 511.003601,455.388672 511.003418,453.556763 
	C510.998962,411.242645 511.068420,368.928314 510.909760,326.614777 
	C510.890717,321.535980 510.067383,316.356873 508.855286,311.410858 
	C507.174652,304.552887 502.273804,300.598022 495.265106,300.206970 
	C489.659180,299.894135 484.001648,300.501007 478.367279,300.705872 
	C476.208801,300.784363 474.050659,300.956512 471.892822,300.949982 
	C468.616669,300.940094 467.033905,299.158020 467.031281,295.935608 
	C467.022888,285.607147 466.910889,275.276703 467.082275,264.951080 
	C467.159485,260.300964 470.857544,257.263794 477.448883,257.135254 
	C491.863617,256.854248 506.503540,255.480331 520.657471,257.423218 
	C541.994263,260.352112 554.990906,271.488556 559.747986,295.931824 
	C561.918640,307.085236 562.582092,318.633911 562.866089,330.029816 
	C563.351501,349.508911 563.000000,369.008820 563.000000,389.000000 
z"/>
<path fill="#3C3C3B" opacity="1.000000" stroke="none" 
	d="
M178.008255,459.033203 
	C164.178955,451.727997 157.964172,439.516571 155.217468,425.341064 
	C153.776398,417.903870 153.124649,410.205505 153.093521,402.621063 
	C152.905655,356.820740 152.996567,311.019257 153.003983,265.218140 
	C153.005280,257.154327 154.163712,256.012909 162.281052,256.003418 
	C172.773651,255.991165 183.266296,255.991013 193.758896,256.003418 
	C202.375961,256.013580 203.993774,257.595123 203.995560,266.082336 
	C204.004410,308.219360 203.915100,350.356720 204.097595,392.492950 
	C204.123184,398.399170 204.850174,404.457275 206.329376,410.166077 
	C208.570465,418.815247 213.240067,421.981903 222.394684,421.936920 
	C228.689041,421.905975 234.977432,421.206787 241.274643,421.043243 
	C246.744049,420.901184 248.849243,422.934265 248.949478,428.428711 
	C249.089188,436.087524 249.003860,443.750580 248.997299,451.411835 
	C248.988983,461.149567 247.491425,464.185547 238.125870,464.508331 
	C221.247986,465.090088 204.206543,466.897705 187.452637,462.980255 
	C184.294662,462.241852 181.377228,460.474762 178.008255,459.033203 
z"/>
<path fill="#3C3C3B" opacity="1.000000" stroke="none" 
	d="
M337.999847,317.108643 
	C337.999878,363.576874 338.003021,409.558594 337.996826,455.540344 
	C337.995605,464.583160 337.584198,464.994751 328.820923,464.998627 
	C317.658691,465.003571 306.496460,465.008728 295.334229,464.996521 
	C287.335541,464.987762 287.003815,464.646973 287.002686,456.377899 
	C286.997131,415.227570 287.169617,374.075928 286.850708,332.928070 
	C286.789825,325.076263 285.259369,317.138306 283.558350,309.427307 
	C282.170563,303.136200 276.944366,300.366730 270.835999,300.157288 
	C265.219757,299.964752 259.523315,300.154053 253.957352,300.892426 
	C244.687286,302.122131 242.020248,300.110077 242.003128,290.799530 
	C241.989944,283.635742 241.992188,276.471893 242.002579,269.308075 
	C242.014633,260.998810 243.216034,258.793640 250.995667,257.629517 
	C266.652191,255.286743 282.464233,254.655380 298.099060,257.625092 
	C320.274902,261.837158 332.062225,276.304962 335.877838,297.870453 
	C336.971649,304.052643 337.313232,310.367920 337.999847,317.108643 
z"/>
<path fill="#000000" opacity="1.000000" stroke="none" 
	d="
M728.149658,324.897522 
	C729.121033,330.172852 730.084045,335.033417 730.882751,339.920807 
	C731.548218,343.992767 728.767273,344.013885 725.902039,344.010193 
	C705.604187,343.984161 685.306274,344.000031 665.008423,343.998383 
	C661.847412,343.998108 658.643066,344.273773 655.546204,343.822388 
	C654.262817,343.635376 652.359497,341.998932 652.180847,340.805634 
	C650.091309,326.850159 659.658264,307.883209 672.149231,302.564850 
	C684.992676,297.096405 698.393860,297.000458 711.367920,302.291504 
	C721.099670,306.260345 725.534668,314.805420 728.149658,324.897522 
z"/>
</svg>